<svg width="322" height="322" fill="none" xmlns="http://www.w3.org/2000/svg"><circle cx="160.5" cy="161.5" r="137.5" fill="#fff"/><path fill-rule="evenodd" clip-rule="evenodd" d="M116.618 190.506 80.098 112H70v97.943h12.451v-66.054l30.295 66.054h7.743l30.371-66.054v66.054h12.452V112h-10.098l-36.596 78.506Zm83.973 8.58v-34.242h45.859v-10.857h-45.859v-31.13h49.731V112h-62.183v97.943h63.777v-10.857h-51.325Z" fill="#010101"/><path d="M161.244 305.487c79.663 0 144.243-64.58 144.243-144.243C305.487 81.58 240.907 17 161.244 17 81.58 17 17 81.58 17 161.244c0 79.663 64.58 144.243 144.244 144.243Z" stroke="url(#a)" stroke-width="33"/><defs><linearGradient id="a" x1="161.244" y1="17" x2="161.244" y2="305.487" gradientUnits="userSpaceOnUse"><stop stop-color="#FAD126" stop-opacity=".996"/><stop offset="1" stop-color="#FF544F"/></linearGradient></defs></svg>